<?xml version="1.0" encoding="UTF-8"?>
<svg xmlns="http://www.w3.org/2000/svg" xmlns:xlink="http://www.w3.org/1999/xlink" width="14px" height="16px" viewBox="0 0 14 16" version="1.1">
<g id="surface1">
<path style=" stroke:none;fill-rule:nonzero;fill:rgb(0%,0%,0%);fill-opacity:1;" d="M 14 8.179688 C 14 12.601562 11.21875 15.75 7.113281 15.75 C 3.179688 15.75 0 12.289062 0 8 C 0 3.710938 3.179688 0.25 7.113281 0.25 C 9.03125 0.25 10.644531 1.015625 11.886719 2.277344 L 9.949219 4.304688 C 7.414062 1.644531 2.707031 3.644531 2.707031 8 C 2.707031 10.703125 4.6875 12.894531 7.113281 12.894531 C 9.933594 12.894531 10.988281 10.695312 11.152344 9.554688 L 7.113281 9.554688 L 7.113281 6.886719 L 13.886719 6.886719 C 13.953125 7.285156 14 7.664062 14 8.179688 Z M 14 8.179688 "/>
</g>
</svg>
